<svg xmlns="http://www.w3.org/2000/svg" width="23" height="23" viewBox="0 0 23 23">
  <defs>
    <style>
      .cls-1 {
        fill: #fff;
        fill-rule: evenodd;
      }
    </style>
  </defs>
  <path id="icon_tel.svg" class="cls-1" d="M1345.2,41.693a0.739,0.739,0,0,0-.99-0.053l-1.4,1.128a0.735,0.735,0,0,1-.94-0.011,18.509,18.509,0,0,1-2.51-2.117,19.408,19.408,0,0,1-2.12-2.507,0.748,0.748,0,0,1-.01-0.947l1.13-1.4a0.74,0.74,0,0,0-.05-0.992l-2.68-2.679a0.74,0.74,0,0,0-1-.044l-3.36,2.822a0.739,0.739,0,0,0-.18.921s0.45,0.922.87,1.628a33.067,33.067,0,0,0,4.7,5.9,32.884,32.884,0,0,0,5.9,4.7c0.7,0.42,1.62.872,1.62,0.872a0.742,0.742,0,0,0,.92-0.178l2.83-3.359a0.757,0.757,0,0,0-.05-1.005Zm0.66-3.593,1.12-.177a5.922,5.922,0,0,0-4.9-4.9l-0.18,1.115a4.751,4.751,0,0,1,2.62,1.341A4.684,4.684,0,0,1,1345.86,38.1Zm4.49-8.45A12.951,12.951,0,0,0,1343.19,26l-0.18,1.115a11.876,11.876,0,0,1,9.87,9.876l1.12-.176A13,13,0,0,0,1350.35,29.65Zm-7.72-.145-0.17,1.117a8.333,8.333,0,0,1,6.92,6.923l1.11-.176A9.447,9.447,0,0,0,1342.63,29.505Z" transform="translate(-1331 -26)"/>
</svg>
